<svg xmlns="http://www.w3.org/2000/svg" width="185.633" height="58.464" viewBox="0 0 185.633 58.464"><g transform="translate(-0.453 -0.536)"><path d="M0,4.81H185.633L182.526,0H3.569Z" transform="translate(0.453 1)" fill="#00722a"/><path d="M0,0H178.957a0,0,0,0,1,0,0V38.964a19.5,19.5,0,0,1-19.5,19.5H19.5A19.5,19.5,0,0,1,0,38.964V0A0,0,0,0,1,0,0Z" transform="translate(4.022 0.536)" fill="#259d51"/><g transform="translate(30.161 17)"><text transform="translate(32.172 1)" fill="#fff" font-size="18" font-family="OpenSans-Extrabold, Open Sans" font-weight="800"><tspan letter-spacing="0.156em"><tspan x="0" y="19">GOOGLE</tspan><tspan y="19" font-size="15.947" letter-spacing="0.188em"></tspan></tspan><tspan font-size="14" font-family="OpenSans-Semibold, Open Sans" font-weight="600"><tspan x="0" y="33.06">GUARANTEED</tspan></tspan></text><path d="M13.471.511a22.442,22.442,0,0,0,9.746,4.62,1.08,1.08,0,0,1,.913,1.064V16.9c0,4.156-7.484,13.1-12.079,13.1S0,21,0,16.9V6.2A1.077,1.077,0,0,1,.911,5.131,22.435,22.435,0,0,0,10.657.51a2.2,2.2,0,0,1,2.814,0" fill="#fff"/><path d="M12.672,6.6,10.555,8.79l-2.1,2.205L6.337,13.2,4.218,10.995,2.117,8.79,0,6.6,2.117,4.4,4.218,6.6,6.337,8.79,8.453,6.6l2.1-2.205,2.117-2.205L14.788,0l2.1,2.191L14.788,4.4Z" transform="translate(3.619 9.6)" fill="#259d51"/></g></g></svg>