<?xml version="1.0" encoding="utf-8"?>
<!-- Generator: Adobe Illustrator 23.0.3, SVG Export Plug-In . SVG Version: 6.00 Build 0)  -->
<svg version="1.1" id="Layer_1" xmlns="http://www.w3.org/2000/svg" xmlns:xlink="http://www.w3.org/1999/xlink" x="0px" y="0px"
	 viewBox="0 0 185.6 58.5" style="enable-background:new 0 0 185.6 58.5;" xml:space="preserve">
<style type="text/css">
	.st0{fill:#00722A;}
	.st1{fill:#259D51;}
	.st2{enable-background:new    ;}
	.st3{fill:#FFFFFF;}
</style>
<g transform="translate(-0.453 -0.536)">
	<path class="st0" d="M0.5,5.8h185.6L183,1H4L0.5,5.8z"/>
	<path class="st1" d="M4,0.5h179l0,0v39c0,10.8-8.7,19.5-19.5,19.5h-140C12.8,59,4,50.3,4,39.5V0.5L4,0.5z"/>
	<g transform="translate(30.161 17)">
		<g class="st2">
			<path class="st3" d="M38.7,12.5h5.5v6.9c-1.5,0.5-3.2,0.8-5,0.8c-2,0-3.5-0.6-4.6-1.7s-1.6-2.8-1.6-4.9c0-2.1,0.6-3.7,1.8-4.8
				s2.8-1.7,5-1.7c0.8,0,1.6,0.1,2.3,0.2s1.3,0.3,1.9,0.6l-1.1,2.7C42,10,41,9.8,39.9,9.8c-1,0-1.8,0.3-2.4,1
				c-0.6,0.7-0.8,1.6-0.8,2.8c0,1.2,0.3,2.1,0.8,2.7c0.5,0.6,1.2,0.9,2.2,0.9c0.5,0,1,0,1.4-0.1v-2h-2.3V12.5z"/>
			<path class="st3" d="M61.7,13.6c0,2.2-0.5,3.8-1.6,4.9s-2.6,1.7-4.7,1.7c-2,0-3.6-0.6-4.6-1.7s-1.6-2.8-1.6-4.9
				c0-2.1,0.5-3.8,1.6-4.9s2.6-1.7,4.7-1.7c2,0,3.6,0.6,4.6,1.7S61.7,11.4,61.7,13.6z M52.9,13.6c0,2.5,0.9,3.7,2.6,3.7
				c0.9,0,1.5-0.3,2-0.9c0.4-0.6,0.6-1.5,0.6-2.8c0-1.3-0.2-2.2-0.6-2.8s-1.1-0.9-1.9-0.9C53.7,9.8,52.9,11.1,52.9,13.6z"/>
			<path class="st3" d="M78.9,13.6c0,2.2-0.5,3.8-1.6,4.9s-2.6,1.7-4.7,1.7c-2,0-3.6-0.6-4.6-1.7s-1.6-2.8-1.6-4.9
				c0-2.1,0.5-3.8,1.6-4.9s2.6-1.7,4.7-1.7c2,0,3.6,0.6,4.6,1.7S78.9,11.4,78.9,13.6z M70,13.6c0,2.5,0.9,3.7,2.6,3.7
				c0.9,0,1.5-0.3,2-0.9c0.4-0.6,0.6-1.5,0.6-2.8c0-1.3-0.2-2.2-0.6-2.8s-1.1-0.9-1.9-0.9C70.9,9.8,70,11.1,70,13.6z"/>
			<path class="st3" d="M89.2,12.5h5.5v6.9c-1.5,0.5-3.2,0.8-5,0.8c-2,0-3.5-0.6-4.6-1.7s-1.6-2.8-1.6-4.9c0-2.1,0.6-3.7,1.8-4.8
				s2.8-1.7,5-1.7c0.8,0,1.6,0.1,2.3,0.2s1.3,0.3,1.9,0.6l-1.1,2.7c-0.9-0.5-1.9-0.7-3-0.7c-1,0-1.8,0.3-2.4,1
				c-0.6,0.7-0.8,1.6-0.8,2.8c0,1.2,0.3,2.1,0.8,2.7c0.5,0.6,1.2,0.9,2.2,0.9c0.5,0,1,0,1.4-0.1v-2h-2.3V12.5z"/>
			<path class="st3" d="M100.1,20V7.2h3.5v10h4.9V20H100.1z"/>
			<path class="st3" d="M121,20h-7.6V7.2h7.6v2.8h-4.2v2h3.8v2.8h-3.8v2.4h4.2V20z"/>
		</g>
		<g class="st2">
			<path class="st3" d="M37.6,28.6h3.7v5c-0.6,0.2-1.2,0.3-1.7,0.4s-1.2,0.1-1.8,0.1c-1.5,0-2.7-0.4-3.5-1.3
				C33.4,32,33,30.7,33,29.1c0-1.6,0.5-2.9,1.4-3.8c0.9-0.9,2.2-1.4,3.8-1.4c1,0,2,0.2,3,0.6l-0.6,1.4c-0.8-0.4-1.6-0.6-2.4-0.6
				c-1.1,0-1.9,0.3-2.5,1s-0.9,1.6-0.9,2.7c0,1.2,0.3,2.1,0.8,2.8c0.6,0.6,1.4,1,2.4,1c0.5,0,1.1-0.1,1.7-0.2V30h-2.1V28.6z"/>
			<path class="st3" d="M51.5,24.1v6.5c0,0.7-0.2,1.4-0.5,1.9c-0.3,0.6-0.8,1-1.4,1.3c-0.6,0.3-1.3,0.4-2.1,0.4
				c-1.2,0-2.2-0.3-2.9-1s-1-1.6-1-2.7v-6.4h1.6v6.3c0,0.8,0.2,1.4,0.6,1.8c0.4,0.4,1,0.6,1.8,0.6c1.5,0,2.3-0.8,2.3-2.4v-6.3H51.5z
				"/>
			<path class="st3" d="M60.2,34.1l-1-2.8h-3.8l-1,2.8h-1.7l3.7-10h1.8l3.7,10H60.2z M58.8,29.9l-0.9-2.7c-0.1-0.2-0.2-0.5-0.3-0.9
				s-0.2-0.7-0.2-0.9c-0.1,0.6-0.3,1.2-0.5,1.8l-0.9,2.6H58.8z"/>
			<path class="st3" d="M64.9,30.1v4h-1.6v-10h2.8c1.3,0,2.2,0.2,2.9,0.7c0.6,0.5,0.9,1.2,0.9,2.2c0,1.2-0.6,2.1-1.9,2.7l2.8,4.4
				h-1.9l-2.4-4H64.9z M64.9,28.7h1.1c0.8,0,1.3-0.1,1.7-0.4s0.5-0.7,0.5-1.3c0-0.6-0.2-1-0.6-1.2s-0.9-0.4-1.7-0.4h-1.1V28.7z"/>
			<path class="st3" d="M78.5,34.1l-1-2.8h-3.8l-1,2.8h-1.7l3.7-10h1.8l3.7,10H78.5z M77,29.9l-0.9-2.7c-0.1-0.2-0.2-0.5-0.3-0.9
				c-0.1-0.4-0.2-0.7-0.3-0.9c-0.1,0.6-0.3,1.2-0.5,1.8l-0.9,2.6H77z"/>
			<path class="st3" d="M89.8,34.1h-2l-4.9-8h-0.1l0,0.4c0.1,0.8,0.1,1.6,0.1,2.3v5.2h-1.5v-10h2l4.9,7.9h0c0-0.1,0-0.5-0.1-1.1
				c0-0.7,0-1.2,0-1.5v-5.2h1.5V34.1z"/>
			<path class="st3" d="M95.9,34.1h-1.6v-8.6h-2.9v-1.4h7.5v1.4h-2.9V34.1z"/>
			<path class="st3" d="M106,34.1h-5.7v-10h5.7v1.4h-4v2.7h3.8v1.4H102v3.1h4V34.1z"/>
			<path class="st3" d="M113.9,34.1h-5.7v-10h5.7v1.4h-4v2.7h3.8v1.4h-3.8v3.1h4V34.1z"/>
			<path class="st3" d="M124.1,29c0,1.6-0.5,2.9-1.4,3.8c-0.9,0.9-2.2,1.3-4,1.3H116v-10h3.1c1.6,0,2.8,0.4,3.7,1.3
				C123.7,26.2,124.1,27.4,124.1,29z M122.4,29c0-2.4-1.1-3.6-3.4-3.6h-1.4v7.3h1.2C121.2,32.7,122.4,31.5,122.4,29z"/>
		</g>
		<path class="st3" d="M13.5,0.5c2.8,2.3,6.2,3.9,9.7,4.6c0.5,0.1,0.9,0.5,0.9,1.1v10.7c0,4.2-7.5,13.1-12.1,13.1S0,21,0,16.9V6.2
			c0-0.5,0.4-1,0.9-1.1c3.6-0.7,6.9-2.3,9.7-4.6C11.5-0.2,12.7-0.2,13.5,0.5"/>
		<path class="st1" d="M16.3,16.2l-2.1,2.2l-2.1,2.2L10,22.8l-2.1-2.2l-2.1-2.2l-2.1-2.2L5.7,14l2.1,2.2l2.1,2.2l2.1-2.2l2.1-2.2
			l2.1-2.2l2.1-2.2l2.1,2.2L18.4,14L16.3,16.2z"/>
	</g>
</g>
</svg>
