<svg xmlns="http://www.w3.org/2000/svg" width="366" height="101" viewBox="0 0 366 101"><path d="M242.721,74a39.879,39.879,0,0,1-14.238-2.363,27.066,27.066,0,0,1-10.477-7.09,30.66,30.66,0,0,1-6.447-11.558,52.844,52.844,0,0,1-2.149-15.768,50.807,50.807,0,0,1,1.041-10.5,39.1,39.1,0,0,1,3.123-9.145,31.67,31.67,0,0,1,5.077-7.49,29.628,29.628,0,0,1,6.9-5.533,32.3,32.3,0,0,1,8.5-3.415A41.189,41.189,0,0,1,243.939,0a50.45,50.45,0,0,1,11.286,1.268A51.374,51.374,0,0,1,266,5.072l-5.893,15.312a66.067,66.067,0,0,0-7.889-3.151,27.427,27.427,0,0,0-8.474-1.28,12.281,12.281,0,0,0-10.714,5.686c-2.553,3.773-3.847,9.049-3.847,15.682,0,6.893,1.315,12.136,3.908,15.582s6.538,5.194,11.725,5.194a31.835,31.835,0,0,0,9.156-1.329,91.067,91.067,0,0,0,8.912-3.2V70.012a44.327,44.327,0,0,1-9.5,2.991A55.153,55.153,0,0,1,242.721,74Zm-128.127-.983H91.946L68.716,1.034H90.338l9.691,36.483c2,8.069,3.118,13.767,3.312,16.936.23-2.308.689-5.206,1.364-8.616.685-3.453,1.291-6.187,1.8-8.124l9.887-36.679h21.525L114.592,73.015Zm91.748,0H185.3L181.8,59.525H158.665l-3.6,13.49H133.925L157.155.739h25.665l23.521,72.276ZM170.11,12.606h0c-.29,1.664-.872,4.447-1.728,8.269s-2.778,11.445-5.722,22.7H177.8l-3.068-11.816c-.713-2.619-1.589-6.048-2.605-10.192S170.432,14.4,170.11,12.606ZM61.021,73.016H41.687V43.672H19.334V73.015H0V1.034H19.334V27.719H41.687V1.034H61.021V73.015Z" transform="translate(87)" fill="#2f338f"/><path d="M30.062,66A15.671,15.671,0,0,1,14.39,50.329v-.013a13.551,13.551,0,0,0,11.474,5.946c7.252,0,13.153-5.223,13.153-11.642a11.335,11.335,0,0,0-5.776-9.639A15.672,15.672,0,0,1,30.062,66ZM50.329,51.61h-.013a13.551,13.551,0,0,0,5.946-11.473c0-7.253-5.223-13.154-11.642-13.154a11.336,11.336,0,0,0-9.639,5.776A15.672,15.672,0,1,1,50.329,51.61ZM15.672,45.733a15.671,15.671,0,1,1,0-31.342h.012A13.553,13.553,0,0,0,9.738,25.864c0,7.252,5.222,13.153,11.642,13.153a11.339,11.339,0,0,0,9.64-5.776A15.658,15.658,0,0,1,15.672,45.733Zm17.08-14.714A15.673,15.673,0,1,1,51.61,15.672v.012A13.551,13.551,0,0,0,40.136,9.738c-7.253,0-13.154,5.222-13.154,11.642a11.342,11.342,0,0,0,5.769,9.637Z" fill="#2f338f"/><path d="M325.621,10a4.985,4.985,0,0,1-3.686-1.3,5.08,5.08,0,0,1-1.285-3.721,5.016,5.016,0,0,1,1.289-3.7A5.049,5.049,0,0,1,325.635,0a4.971,4.971,0,0,1,3.681,1.289A5.076,5.076,0,0,1,330.592,5,5.06,5.06,0,0,1,329.306,8.7,4.984,4.984,0,0,1,325.621,10Zm.014-8.285a2.423,2.423,0,0,0-1.993.827A3.845,3.845,0,0,0,322.971,5a3.86,3.86,0,0,0,.664,2.452,2.408,2.408,0,0,0,1.985.824c1.758,0,2.65-1.1,2.65-3.276S327.384,1.714,325.635,1.714ZM243.877,10a4.57,4.57,0,0,1-3.486-1.285,5.22,5.22,0,0,1-1.207-3.692,5.729,5.729,0,0,1,.593-2.654,4.135,4.135,0,0,1,1.7-1.748,5.367,5.367,0,0,1,2.6-.608A7.545,7.545,0,0,1,247.14.7l-.715,1.675a11.5,11.5,0,0,0-1.178-.452,3.762,3.762,0,0,0-1.164-.193,2.328,2.328,0,0,0-1.936.873,3.866,3.866,0,0,0-.686,2.435c0,2.156.882,3.249,2.622,3.249a8.852,8.852,0,0,0,2.663-.511V9.5A7.9,7.9,0,0,1,243.877,10ZM179.25,10a7.172,7.172,0,0,1-2.956-.585V7.5a13.183,13.183,0,0,0,1.789.618,5.684,5.684,0,0,0,1.339.179,2.029,2.029,0,0,0,1.118-.259.868.868,0,0,0,.389-.77.816.816,0,0,0-.171-.508,1.946,1.946,0,0,0-.5-.428,11.15,11.15,0,0,0-1.354-.658,6.471,6.471,0,0,1-1.436-.8,3.06,3.06,0,0,1-.764-.9,2.5,2.5,0,0,1-.285-1.2,2.446,2.446,0,0,1,.94-2.027,4.169,4.169,0,0,1,2.6-.737A6.6,6.6,0,0,1,181.5.193a11.221,11.221,0,0,1,1.546.5l-.715,1.6a11.186,11.186,0,0,0-1.382-.445,4.722,4.722,0,0,0-1.075-.126,1.517,1.517,0,0,0-.965.272.879.879,0,0,0-.336.711.841.841,0,0,0,.136.475,1.465,1.465,0,0,0,.432.392,13.849,13.849,0,0,0,1.4.68,5.718,5.718,0,0,1,2.007,1.306,2.443,2.443,0,0,1,.543,1.6,2.456,2.456,0,0,1-1.017,2.073A4.676,4.676,0,0,1,179.25,10Zm-20.19,0a4.569,4.569,0,0,1-3.485-1.285,5.22,5.22,0,0,1-1.207-3.692,5.621,5.621,0,0,1,.592-2.654,4.134,4.134,0,0,1,1.7-1.748,5.365,5.365,0,0,1,2.6-.608A7.592,7.592,0,0,1,162.325.7l-.715,1.675a10.161,10.161,0,0,0-1.178-.452,3.765,3.765,0,0,0-1.165-.193,2.327,2.327,0,0,0-1.935.873,3.849,3.849,0,0,0-.686,2.435c0,2.156.882,3.249,2.621,3.249a8.864,8.864,0,0,0,2.664-.511V9.5A7.906,7.906,0,0,1,159.061,10Zm-79.1,0A7.214,7.214,0,0,1,77,9.415V7.5a13.349,13.349,0,0,0,1.789.618,5.684,5.684,0,0,0,1.339.179,2.023,2.023,0,0,0,1.117-.259.868.868,0,0,0,.39-.77.82.82,0,0,0-.171-.508,1.975,1.975,0,0,0-.5-.428,10.213,10.213,0,0,0-1.354-.658,6.4,6.4,0,0,1-1.435-.8,3.01,3.01,0,0,1-.764-.9,2.535,2.535,0,0,1-.285-1.2A2.449,2.449,0,0,1,78.062.751a4.2,4.2,0,0,1,2.6-.737,6.6,6.6,0,0,1,1.553.179,11.245,11.245,0,0,1,1.546.5l-.715,1.6a11.449,11.449,0,0,0-1.382-.445,4.725,4.725,0,0,0-1.075-.126A1.526,1.526,0,0,0,79.623,2a.88.88,0,0,0-.336.711.84.84,0,0,0,.136.475,1.452,1.452,0,0,0,.432.392,14.217,14.217,0,0,0,1.4.68,5.772,5.772,0,0,1,2.007,1.306,2.443,2.443,0,0,1,.543,1.6A2.454,2.454,0,0,1,82.79,9.242,4.671,4.671,0,0,1,79.959,10Zm277.757-.132h-1.978V.153h2.792l4.535,7.276h.05c-.071-1.252-.107-2.154-.107-2.678V.153H365V9.866h-2.814l-4.542-7.349h-.064c.092,1.323.136,2.232.136,2.777V9.867Zm-71.968,0H283.77V.153h2.793L291.1,7.429h.049c-.072-1.322-.107-2.2-.107-2.678V.153h1.993V9.866h-2.812l-4.544-7.349h-.065c.091,1.265.136,2.2.136,2.777V9.867Zm55.22,0h-2.515L335.791.153h2.178l1.336,5.3c.232.974.4,1.83.507,2.545.029-.255.1-.661.2-1.173a12.376,12.376,0,0,1,.29-1.233L341.818.153h2.092l1.521,5.441c.069.253.153.629.25,1.117s.172.911.229,1.289c.051-.369.129-.8.229-1.292s.2-.924.285-1.253l1.328-5.3h2.178l-2.657,9.713h-2.521l-1.414-5.1c-.053-.184-.143-.563-.268-1.126s-.2-.943-.218-1.146c-.028.239-.1.626-.214,1.152s-.2.91-.264,1.133l-1.407,5.09Zm-136.587,0h-2.213V.153h3.042a5.5,5.5,0,0,1,3.149.721,2.509,2.509,0,0,1,1.021,2.189,2.439,2.439,0,0,1-.507,1.525,3.365,3.365,0,0,1-1.436,1.047c1.4,1.95,2.608,3.611,3.07,4.23l-2.454,0L205.561,6.14h-1.179V9.867Zm0-8.027V4.465h.715a2.9,2.9,0,0,0,1.55-.326,1.137,1.137,0,0,0,.5-1.022,1.045,1.045,0,0,0-.51-.984,3.251,3.251,0,0,0-1.582-.293ZM141.613,9.868h-2.385L142.914.113h2.706l3.7,9.751-2.384,0-.757-2.312h-3.806l-.758,2.312Zm2.664-8.245c-.15.538-.642,2.071-1.35,4.2h2.722l-.019-.052c-.72-2.156-1.079-3.236-1.164-3.5S144.312,1.769,144.277,1.623ZM113.661,9.868h-2.214V.153h2.214V3.96H117.8V.153H120V9.866H117.8l0-4.192h-4.135V9.867Zm-97.464,0H13.983V.153H16.2V3.96h4.135V.153H22.54V9.866h-2.2l0-4.192H16.2V9.867Zm296.276,0h-2.214v-8h-2.835V.153h7.884V1.867h-2.835v8Zm-35.823,0h-2.213V.153h2.214V9.866Zm-44.123,0h-2.213V.153h2.214V9.866Zm-138.307,0h-2.21l0-8H89.172V.153h7.884V1.867H94.221v8Zm-89.172,0H2.839l0-8H0V.153H7.884V1.867H5.049v8Zm254.425,0h-6.013V.153h6.013V1.84h-3.8V3.973h3.534V5.661h-3.534v2.5h3.8v1.7Zm-38.515,0h-2.414L215,.153h2.236L219.2,5.934c.109.341.22.731.339,1.193.114.439.185.749.218.947a15.973,15.973,0,0,1,.535-2.139L222.272.153h2.236l-3.55,9.713Zm-25.46,0h-6.013V.153H195.5V1.84h-3.8V3.973h3.535V5.661H191.7v2.5h3.8v1.7Zm-63.725,0h-2.415L125.816.153h2.235l1.965,5.781c.131.419.245.821.338,1.193.12.475.191.785.218.947a16.9,16.9,0,0,1,.536-2.139L133.087.153h2.235l-3.549,9.713Zm-60.8,0H64.961V.153h6.014V1.84h-3.8V3.973H70.71V5.661H67.175v2.5h3.8v1.7Zm-16.426,0H50.642V.153h3.249a6.765,6.765,0,0,1,3.225.588,2.016,2.016,0,0,1,1,1.87A2.256,2.256,0,0,1,57.68,4.04a1.781,1.781,0,0,1-1.167.67v.067a2.348,2.348,0,0,1,1.432.771,2.388,2.388,0,0,1,.439,1.5,2.425,2.425,0,0,1-1.032,2.074A4.726,4.726,0,0,1,54.549,9.867ZM52.856,5.635V8.166H54.3a2.191,2.191,0,0,0,1.35-.325,1.169,1.169,0,0,0,.436-1c0-.8-.625-1.209-1.858-1.209Zm0-3.794V4h1.285a2.624,2.624,0,0,0,1.3-.258.945.945,0,0,0,.4-.858.844.844,0,0,0-.439-.8,3.018,3.018,0,0,0-1.39-.243ZM35.68,9.867H29.667V.153H35.68V1.84h-3.8V3.973h3.535V5.661H31.881v2.5h3.8v1.7Z" transform="translate(1 91)" fill="#cb020b"/></svg>