<svg xmlns="http://www.w3.org/2000/svg" width="309" height="85" viewBox="0 0 309 85"><path d="M205.31,62a34.026,34.026,0,0,1-12.044-1.98,22.906,22.906,0,0,1-8.862-5.94A25.618,25.618,0,0,1,178.95,44.4a43.881,43.881,0,0,1-1.818-13.211,36.738,36.738,0,0,1,3.523-16.459,26.525,26.525,0,0,1,4.294-6.275,25.011,25.011,0,0,1,5.839-4.635A27.467,27.467,0,0,1,197.982.954,35.16,35.16,0,0,1,206.339,0a43.062,43.062,0,0,1,9.547,1.062A43.743,43.743,0,0,1,225,4.249l-4.984,12.829a56.264,56.264,0,0,0-6.674-2.64,23.415,23.415,0,0,0-7.168-1.073,10.416,10.416,0,0,0-9.063,4.765c-2.159,3.162-3.254,7.582-3.254,13.138,0,5.776,1.112,10.168,3.306,13.056s5.53,4.352,9.918,4.352a27.175,27.175,0,0,0,7.745-1.113,77.919,77.919,0,0,0,7.538-2.681V58.658A41.86,41.86,0,0,1,205.31,62Zm-30.771-.824h-17.8l-2.966-11.3H134.209l-3.048,11.3H113.283L132.932.619h21.71l19.9,60.556ZM143.89,10.562h0c-.245,1.39-.737,3.721-1.462,6.928-.719,3.182-2.347,9.58-4.84,19.016H150.4l-2.595-9.9c-.6-2.179-1.341-5.052-2.2-8.539S144.163,12.066,143.89,10.562ZM51.616,61.176H35.262V36.589H16.354V61.175H0V.867H16.354V23.224H35.262V.867H51.616V61.175Zm45.312,0H77.773L58.125.867h18.29l8.2,30.567c1.7,6.756,2.638,11.531,2.8,14.19.192-1.918.58-4.347,1.153-7.219s1.089-5.176,1.525-6.807L98.453.867h18.208L96.929,61.175h0Z" transform="translate(73)" fill="#fff"/><path d="M25.507,55a13.332,13.332,0,0,1-9.4-3.825,12.857,12.857,0,0,1-3.894-9.234V41.93a11.556,11.556,0,0,0,9.734,4.955c6.154,0,11.16-4.352,11.16-9.7a9.42,9.42,0,0,0-4.9-8.033,13.376,13.376,0,0,1,7.569,4.489,12.889,12.889,0,0,1-.864,17.535A13.332,13.332,0,0,1,25.507,55ZM42.7,43.008h-.011a11.237,11.237,0,0,0,5.045-9.562c0-6.043-4.431-10.96-9.878-10.96A9.646,9.646,0,0,0,29.681,27.3a13.061,13.061,0,0,1,4.571-7.434A13.471,13.471,0,0,1,42.7,16.889a13.33,13.33,0,0,1,9.4,3.825,12.9,12.9,0,0,1,0,18.469A13.33,13.33,0,0,1,42.7,43.008ZM13.3,38.111a13.333,13.333,0,0,1-9.4-3.825,12.9,12.9,0,0,1,0-18.469,13.333,13.333,0,0,1,9.4-3.825h.011a11.237,11.237,0,0,0-5.045,9.562c0,6.044,4.431,10.961,9.878,10.961A9.648,9.648,0,0,0,26.32,27.7a13.064,13.064,0,0,1-4.571,7.434A13.471,13.471,0,0,1,13.3,38.111ZM27.788,25.848a13.378,13.378,0,0,1-7.561-4.488,12.888,12.888,0,0,1,.863-17.535,13.468,13.468,0,0,1,18.8,0,12.858,12.858,0,0,1,3.9,9.235v.01a11.559,11.559,0,0,0-9.735-4.955c-6.154,0-11.16,4.352-11.16,9.7a9.421,9.421,0,0,0,4.894,8.03Z" fill="#fff"/><path d="M274.77,8a4.347,4.347,0,0,1-3.11-1.037,3.942,3.942,0,0,1-1.084-2.976,3.889,3.889,0,0,1,1.088-2.964A4.4,4.4,0,0,1,274.783,0a4.331,4.331,0,0,1,3.106,1.031A3.933,3.933,0,0,1,278.965,4a3.926,3.926,0,0,1-1.085,2.966A4.343,4.343,0,0,1,274.77,8Zm.013-6.629a2.1,2.1,0,0,0-1.681.661A2.962,2.962,0,0,0,272.534,4a2.98,2.98,0,0,0,.561,1.962,2.084,2.084,0,0,0,1.675.659c1.484,0,2.236-.882,2.236-2.621S276.258,1.372,274.783,1.372ZM205.791,8a3.977,3.977,0,0,1-2.941-1.029,4.037,4.037,0,0,1-1.018-2.953,4.356,4.356,0,0,1,.5-2.123A3.384,3.384,0,0,1,203.77.5a4.769,4.769,0,0,1,2.2-.486,6.677,6.677,0,0,1,2.579.547l-.6,1.34a10.325,10.325,0,0,0-.995-.362,3.455,3.455,0,0,0-.983-.154,2.009,2.009,0,0,0-1.633.7,2.982,2.982,0,0,0-.579,1.948c0,1.725.744,2.6,2.211,2.6a7.854,7.854,0,0,0,2.248-.409V7.6A7.079,7.079,0,0,1,205.791,8ZM151.258,8a6.279,6.279,0,0,1-2.495-.468V6a11.192,11.192,0,0,0,1.51.494,5.193,5.193,0,0,0,1.129.144,1.727,1.727,0,0,0,.943-.207.686.686,0,0,0,.328-.617.63.63,0,0,0-.145-.406,1.561,1.561,0,0,0-.425-.343,11.742,11.742,0,0,0-1.142-.527,5.5,5.5,0,0,1-1.211-.643,2.509,2.509,0,0,1-.644-.717,1.854,1.854,0,0,1-.241-.957A1.918,1.918,0,0,1,149.658.6a3.6,3.6,0,0,1,2.191-.59,5.919,5.919,0,0,1,1.31.143,9.158,9.158,0,0,1,1.305.4l-.6,1.282a9.394,9.394,0,0,0-1.166-.356,4.474,4.474,0,0,0-.906-.1,1.275,1.275,0,0,0-.814.218.686.686,0,0,0-.284.569.645.645,0,0,0,.114.38,1.217,1.217,0,0,0,.365.314,11.908,11.908,0,0,0,1.184.545,4.791,4.791,0,0,1,1.694,1.044,1.892,1.892,0,0,1,.458,1.284,1.931,1.931,0,0,1-.86,1.659A4.062,4.062,0,0,1,151.258,8ZM134.221,8a3.975,3.975,0,0,1-2.941-1.029,4.039,4.039,0,0,1-1.019-2.953,4.366,4.366,0,0,1,.5-2.123A3.394,3.394,0,0,1,132.2.5a4.808,4.808,0,0,1,2.2-.486,6.725,6.725,0,0,1,2.579.547l-.6,1.34a10.226,10.226,0,0,0-.994-.362,3.561,3.561,0,0,0-.982-.154,2.012,2.012,0,0,0-1.634.7,2.985,2.985,0,0,0-.579,1.948c0,1.725.744,2.6,2.212,2.6a7.843,7.843,0,0,0,2.247-.409V7.6A7.12,7.12,0,0,1,134.221,8ZM67.472,8a6.267,6.267,0,0,1-2.495-.468V6a10.016,10.016,0,0,0,1.509.494,5.293,5.293,0,0,0,1.13.144,1.7,1.7,0,0,0,.943-.207.686.686,0,0,0,.328-.617.63.63,0,0,0-.145-.406,1.545,1.545,0,0,0-.425-.343,12.1,12.1,0,0,0-1.142-.527A5.428,5.428,0,0,1,65.966,3.9a2.48,2.48,0,0,1-.644-.717,1.854,1.854,0,0,1-.241-.957A1.919,1.919,0,0,1,65.872.6a3.574,3.574,0,0,1,2.191-.59,5.854,5.854,0,0,1,1.311.143,9.633,9.633,0,0,1,1.3.4l-.6,1.282a9.268,9.268,0,0,0-1.166-.356,4.576,4.576,0,0,0-.907-.1,1.258,1.258,0,0,0-.814.218.689.689,0,0,0-.283.569.645.645,0,0,0,.114.38,1.218,1.218,0,0,0,.365.314,11.408,11.408,0,0,0,1.184.545,4.784,4.784,0,0,1,1.693,1.044,1.886,1.886,0,0,1,.458,1.284,1.932,1.932,0,0,1-.859,1.659A4.036,4.036,0,0,1,67.472,8Zm234.381-.105h-1.669V.122h2.356l3.827,5.82h.041c-.061-1.035-.09-1.736-.09-2.142V.122H308v7.77h-2.374l-3.833-5.88h-.054c.076,1.034.114,1.782.114,2.222V7.894Zm-60.728,0h-1.669V.122h2.357l3.827,5.82h.041c-.06-.986-.09-1.707-.09-2.142V.122h1.681V7.893H244.9l-3.835-5.88h-.054c.076,1.012.114,1.76.114,2.222V7.894Zm-68.659,0H170.6V.122h2.568A4.89,4.89,0,0,1,175.822.7a1.972,1.972,0,0,1,.861,1.751,1.9,1.9,0,0,1-.427,1.22,2.807,2.807,0,0,1-1.211.837c1.379,1.815,2.226,2.922,2.59,3.385l-2.072,0-2.1-2.983h-.995V7.894Zm0-6.422v2.1h.6a2.57,2.57,0,0,0,1.309-.26.9.9,0,0,0,.421-.819.825.825,0,0,0-.431-.787,2.875,2.875,0,0,0-1.335-.234ZM95.911,7.895H94.043V.122h1.868V3.168H99.4V.122h1.862V7.893H99.4V4.54H95.911V7.894Zm-82.243,0H11.8V.122h1.868V3.168h3.489V.122H19.02V7.893H17.158V4.54H13.668V7.894Zm274.053,0H285.6L283.352.122h1.838l1.127,4.242c.2.779.34,1.464.427,2.036.026-.209.082-.524.167-.938a9.454,9.454,0,0,1,.244-.986L288.438.122H290.2l1.283,4.353c.057.2.128.5.211.893.088.419.152.757.193,1.031.042-.289.105-.627.193-1.034s.168-.742.241-1L293.446.122h1.839l-2.242,7.771h-2.128l-1.193-4.082c-.045-.152-.126-.472-.226-.9-.106-.456-.168-.764-.184-.917-.025.2-.089.516-.181.923-.1.427-.171.723-.223.906l-1.187,4.072Zm-168.223,0h-2.012L120.6.09h2.284l3.12,7.8-2.011,0-.639-1.85h-3.212l-.639,1.85Zm2.248-6.6c-.135.454-.54,1.649-1.139,3.365h2.3l-.187-.528-.293-.836c-.156-.443-.365-1.039-.508-1.45l0-.008,0-.008,0-.014C121.841,1.623,121.79,1.458,121.747,1.3Zm141.929,6.6h-1.867l0-6.4h-2.392V.122h6.653V1.494h-2.392v6.4Zm-30.229,0h-1.865l0-7.771h1.868V7.893Zm-37.231,0h-1.865l0-7.771h1.868V7.893Zm-116.708,0H77.643l0-6.4H75.246V.122H81.9V1.494H79.507v6.4Zm-75.246,0H2.4l0-6.4H0V.122H6.653V1.494H4.261v6.4Zm214.692,0h-5.074V.122h5.074v1.35h-3.206V3.179h2.984v1.35h-2.984v2h3.206v1.36Zm-32.5,0h-2.037L181.426.122h1.886l1.657,4.624c.1.278.192.6.286.954s.16.615.184.758a12.493,12.493,0,0,1,.453-1.712L187.561.122h1.886l-3,7.771Zm-21.484,0h-5.074V.122h5.074v1.35h-3.206V3.179h2.983v1.35h-2.983v2h3.206v1.36Zm-53.774,0h-2.037L106.169.122h1.885l1.658,4.624c.09.265.183.577.286.954.1.352.157.607.184.758a12.244,12.244,0,0,1,.452-1.712L112.3.122h1.886l-3,7.771Zm-51.3,0H54.816V.122h5.074v1.35H56.685V3.179h2.984v1.35H56.685v2h3.206v1.36Zm-13.861,0h-3.3V.122h2.741A5.911,5.911,0,0,1,48.2.593a1.593,1.593,0,0,1,.846,1.5,1.738,1.738,0,0,1-.37,1.143,1.532,1.532,0,0,1-.986.537v.053a2.009,2.009,0,0,1,1.208.617,1.851,1.851,0,0,1,.371,1.2A1.905,1.905,0,0,1,48.4,7.3,4.153,4.153,0,0,1,46.03,7.894ZM44.6,4.507V6.533h1.217a2.092,2.092,0,0,0,1.139-.261.915.915,0,0,0,.367-.8c0-.642-.527-.967-1.567-.967Zm0-3.035V3.2h1.085a2.218,2.218,0,0,0,1.1-.208.741.741,0,0,0,.34-.686.668.668,0,0,0-.371-.64,2.793,2.793,0,0,0-1.172-.194ZM30.108,7.894H25.034V.122h5.074v1.35H26.9V3.179h2.983v1.35H26.9v2h3.206v1.36Z" transform="translate(1 77)" fill="#fff"/></svg>