<svg xmlns="http://www.w3.org/2000/svg" width="67" height="78" viewBox="0 0 67 78"><g transform="translate(0)"><path d="M33.5,78C4.246,77.947.23,67.626.073,67.187a1.25,1.25,0,0,1-.057-.622c.926-5.717,2.834-13.08,6.663-15.7,2.627-1.8,11.72-6.615,15.6-8.672l.023-.012.067-.035a1.283,1.283,0,0,1,1.387.12A16.588,16.588,0,0,0,30.4,45.452a1.265,1.265,0,0,1,.913.784L33.5,51.95l2.185-5.714a1.265,1.265,0,0,1,.914-.784,16.62,16.62,0,0,0,6.643-3.183,1.28,1.28,0,0,1,1.385-.12l.067.035.023.012c3.883,2.057,12.977,6.874,15.6,8.672,3.829,2.617,5.737,9.98,6.663,15.7a1.25,1.25,0,0,1-.057.622C66.77,67.626,62.754,77.947,33.5,78Zm7.485-18v2.408h11.53V60ZM34,44c-2.5,0-6.96-1.645-10.867-5.257A22.141,22.141,0,0,1,16,22c0-2.514.074-4.495.233-6.233.339-4.463,1.327-7.635,3.107-9.981a12.187,12.187,0,0,1,5.4-4.212A24.223,24.223,0,0,1,34,0a24.223,24.223,0,0,1,9.256,1.575,12.186,12.186,0,0,1,5.405,4.212c1.778,2.346,2.765,5.517,3.106,9.981C51.926,17.5,52,19.478,52,22a22.141,22.141,0,0,1-7.133,16.742C40.961,42.355,36.5,44,34,44ZM18.712,18.636h0c-.036,1.018-.055,2.119-.057,3.364a19.532,19.532,0,0,0,6.225,14.9c3.4,3.12,7.686,4.469,9.122,4.469s5.724-1.35,9.122-4.469A19.531,19.531,0,0,0,49.347,22c0-1.263-.019-2.364-.058-3.367a5.349,5.349,0,0,1-1.472,1.94,1.22,1.22,0,0,1,.244.676c.008.145,0,.4,0,.645v.032c0,.152-.005.261,0,.322a1.166,1.166,0,0,1-.355.943.811.811,0,0,0-.082.1.907.907,0,0,0-.107.318c-.559,3.358-.7,3.938-2.233,4.739a9,9,0,0,1-3.6.621,9.249,9.249,0,0,1-4.1-.849c-2.026-1.049-2.75-4.565-2.78-4.714-.007-.046-.073-.273-.675-.273h-.233c-.471,0-.658.147-.675.273-.031.15-.774,3.676-2.78,4.714a9.255,9.255,0,0,1-4.1.849,8.986,8.986,0,0,1-3.6-.621c-1.539-.8-1.675-1.382-2.234-4.739a.9.9,0,0,0-.108-.318.591.591,0,0,0-.071-.088l-.009-.01a1.164,1.164,0,0,1-.355-.943c0-.061,0-.169,0-.322v-.064c-.005-.22-.011-.469,0-.613a1.22,1.22,0,0,1,.241-.676A5.39,5.39,0,0,1,18.712,18.636Zm23.7,2.432c-.439,0-.993.019-1.694.057-3.792.22-4.223,1.011-4.26,1.1-.019.056-.451,1.4.933,3.708.653,1.087,2.219,1.736,4.188,1.736a6.771,6.771,0,0,0,2.735-.519c1.432-.688,1.638-2.548,1.634-3.6A3.54,3.54,0,0,0,45.557,22C45.18,21.425,44.522,21.07,42.409,21.068Zm-16.817,0c-2.111,0-2.77.355-3.149.927a3.51,3.51,0,0,0-.386,1.558c0,1.048.2,2.908,1.634,3.6a6.746,6.746,0,0,0,2.735.519c1.97,0,3.535-.649,4.188-1.736,1.408-2.344.938-3.7.932-3.708-.037-.09-.472-.881-4.259-1.1C26.643,21.088,26.088,21.07,25.592,21.07Zm.115-1.457c.725,0,1.478.027,2.238.08l.133.01a9.282,9.282,0,0,1,3.424.625c.209.092.441.2.69.331a6.028,6.028,0,0,0,1.151.441l.022.005a2.474,2.474,0,0,0,1.235.007l.01,0,.006,0,.041-.009a6.05,6.05,0,0,0,1.152-.441c.224-.114.456-.226.689-.331a9.271,9.271,0,0,1,3.419-.625l.138-.01c.76-.053,1.514-.08,2.24-.08.876,0,1.71.037,2.479.111l-.006,0A15.478,15.478,0,0,0,34,15.427a15.3,15.3,0,0,0-10.774,4.3C24.028,19.649,24.863,19.613,25.707,19.613ZM34,10.664a17.129,17.129,0,0,1,4.4.715c.532-1.328.8-1.992,1.328-3.32A20.521,20.521,0,0,0,34,7.1a20.518,20.518,0,0,0-5.723.958c.264.661.463,1.158.662,1.655l.665,1.665A17.206,17.206,0,0,1,34,10.664Z" fill="#2f338f"/></g></svg>